<svg width="223" height="36" viewBox="0 0 223 36" fill="none" xmlns="http://www.w3.org/2000/svg">
<path d="M0.16 27V1.8H16.108V6.768H5.128V11.016H13.696V15.984H5.128V22.032H16.108V27H0.16ZM31.3939 27H24.9679L18.4159 9H23.7079L28.1719 21.294L32.6359 9H37.9459L31.3939 27ZM47.4198 27.468C45.7638 27.468 44.2518 27.042 42.8838 26.19C41.5278 25.338 40.4418 24.192 39.6258 22.752C38.8218 21.312 38.4198 19.722 38.4198 17.982C38.4198 16.674 38.6538 15.45 39.1218 14.31C39.5898 13.158 40.2318 12.15 41.0478 11.286C41.8758 10.41 42.8358 9.726 43.9278 9.234C45.0198 8.742 46.1838 8.496 47.4198 8.496C48.8478 8.496 50.1498 8.802 51.3258 9.414C52.5138 10.026 53.5158 10.86 54.3318 11.916C55.1598 12.972 55.7478 14.166 56.0958 15.498C56.4558 16.83 56.5158 18.216 56.2758 19.656H43.7838C43.9398 20.184 44.1798 20.664 44.5038 21.096C44.8398 21.516 45.2478 21.852 45.7278 22.104C46.2198 22.356 46.7838 22.488 47.4198 22.5C48.0438 22.512 48.6198 22.368 49.1478 22.068C49.6758 21.768 50.1258 21.366 50.4978 20.862L55.5738 22.032C54.8418 23.628 53.7498 24.936 52.2978 25.956C50.8458 26.964 49.2198 27.468 47.4198 27.468ZM43.6038 15.984H51.2538C51.0978 15.384 50.8338 14.844 50.4618 14.364C50.0898 13.884 49.6398 13.506 49.1118 13.23C48.5958 12.954 48.0318 12.816 47.4198 12.816C46.8198 12.816 46.2558 12.954 45.7278 13.23C45.2118 13.506 44.7678 13.884 44.3958 14.364C44.0358 14.832 43.7718 15.372 43.6038 15.984ZM70.3662 14.076C70.0422 13.836 69.6822 13.65 69.2862 13.518C68.8902 13.374 68.4522 13.302 67.9722 13.302C67.1562 13.302 66.4602 13.512 65.8842 13.932C65.3202 14.34 64.8882 14.892 64.5882 15.588C64.3002 16.284 64.1562 17.058 64.1562 17.91V27H59.1522V9H64.1202V10.854C64.6962 10.158 65.3742 9.6 66.1542 9.18C66.9462 8.748 67.8462 8.532 68.8542 8.532C69.2622 8.532 69.6582 8.544 70.0422 8.568C70.4262 8.58 70.7982 8.64 71.1582 8.748L70.3662 14.076ZM85.7033 9H90.9953L81.1313 36H75.8753L79.1153 27L72.6353 9H78.0713L81.5993 20.214L85.7033 9ZM105.816 -2.14577e-06H110.784V27H105.816V25.092C105.264 25.788 104.58 26.358 103.764 26.802C102.948 27.246 102.018 27.468 100.974 27.468C99.6658 27.468 98.4418 27.222 97.3018 26.73C96.1618 26.238 95.1538 25.56 94.2778 24.696C93.4138 23.82 92.7358 22.812 92.2438 21.672C91.7518 20.532 91.5058 19.308 91.5058 18C91.5058 16.692 91.7518 15.468 92.2438 14.328C92.7358 13.188 93.4138 12.186 94.2778 11.322C95.1538 10.446 96.1618 9.762 97.3018 9.27C98.4418 8.778 99.6658 8.532 100.974 8.532C102.018 8.532 102.948 8.754 103.764 9.198C104.58 9.63 105.264 10.2 105.816 10.908V-2.14577e-06ZM101.046 22.698C101.862 22.698 102.6 22.488 103.26 22.068C103.92 21.648 104.442 21.084 104.826 20.376C105.21 19.656 105.402 18.864 105.402 18C105.402 17.124 105.21 16.332 104.826 15.624C104.442 14.916 103.92 14.352 103.26 13.932C102.6 13.512 101.862 13.302 101.046 13.302C100.23 13.302 99.4858 13.512 98.8138 13.932C98.1418 14.352 97.6018 14.922 97.1938 15.642C96.7978 16.35 96.5998 17.136 96.5998 18C96.5998 18.864 96.7978 19.656 97.1938 20.376C97.6018 21.084 98.1418 21.648 98.8138 22.068C99.4858 22.488 100.23 22.698 101.046 22.698ZM128.25 9H133.218V27H128.232L128.016 25.128C127.548 25.824 126.948 26.388 126.216 26.82C125.484 27.252 124.626 27.468 123.642 27.468C122.298 27.468 121.038 27.216 119.862 26.712C118.698 26.208 117.672 25.512 116.784 24.624C115.908 23.736 115.218 22.71 114.714 21.546C114.222 20.37 113.976 19.11 113.976 17.766C113.976 16.482 114.21 15.282 114.678 14.166C115.146 13.05 115.806 12.066 116.658 11.214C117.51 10.362 118.488 9.696 119.592 9.216C120.708 8.736 121.902 8.496 123.174 8.496C124.278 8.496 125.274 8.73 126.162 9.198C127.05 9.666 127.824 10.26 128.484 10.98L128.25 9ZM123.786 22.698C124.638 22.698 125.388 22.476 126.036 22.032C126.684 21.576 127.176 20.976 127.512 20.232C127.848 19.488 127.962 18.666 127.854 17.766C127.758 16.938 127.488 16.188 127.044 15.516C126.6 14.832 126.036 14.292 125.352 13.896C124.68 13.5 123.954 13.302 123.174 13.302C122.322 13.302 121.566 13.524 120.906 13.968C120.246 14.412 119.742 15.006 119.394 15.75C119.046 16.494 118.914 17.322 118.998 18.234C119.106 19.05 119.388 19.8 119.844 20.484C120.312 21.156 120.888 21.696 121.572 22.104C122.268 22.5 123.006 22.698 123.786 22.698ZM148.774 9H154.066L144.202 36H138.946L142.186 27L135.706 9H141.142L144.67 20.214L148.774 9ZM177.612 27.468C175.908 27.468 174.306 27.132 172.806 26.46C171.306 25.776 169.986 24.834 168.846 23.634C167.718 22.434 166.83 21.048 166.182 19.476C165.546 17.892 165.228 16.2 165.228 14.4C165.228 12.588 165.546 10.896 166.182 9.324C166.83 7.74 167.718 6.354 168.846 5.166C169.986 3.966 171.306 3.03 172.806 2.358C174.306 1.674 175.908 1.332 177.612 1.332C179.652 1.332 181.53 1.806 183.246 2.754C184.962 3.69 186.384 4.944 187.512 6.516L183.084 8.91C182.412 8.118 181.602 7.488 180.654 7.02C179.706 6.54 178.692 6.3 177.612 6.3C176.592 6.3 175.632 6.51 174.732 6.93C173.832 7.35 173.04 7.932 172.356 8.676C171.684 9.42 171.156 10.278 170.772 11.25C170.388 12.222 170.196 13.272 170.196 14.4C170.196 15.516 170.388 16.566 170.772 17.55C171.156 18.522 171.684 19.38 172.356 20.124C173.04 20.856 173.832 21.438 174.732 21.87C175.632 22.29 176.592 22.5 177.612 22.5C178.704 22.5 179.718 22.26 180.654 21.78C181.602 21.3 182.412 20.664 183.084 19.872L187.512 22.284C186.384 23.844 184.962 25.098 183.246 26.046C181.53 26.994 179.652 27.468 177.612 27.468ZM203.308 9H208.276V27H203.29L203.074 25.128C202.606 25.824 202.006 26.388 201.274 26.82C200.542 27.252 199.684 27.468 198.7 27.468C197.356 27.468 196.096 27.216 194.92 26.712C193.756 26.208 192.73 25.512 191.842 24.624C190.966 23.736 190.276 22.71 189.772 21.546C189.28 20.37 189.034 19.11 189.034 17.766C189.034 16.482 189.268 15.282 189.736 14.166C190.204 13.05 190.864 12.066 191.716 11.214C192.568 10.362 193.546 9.696 194.65 9.216C195.766 8.736 196.96 8.496 198.232 8.496C199.336 8.496 200.332 8.73 201.22 9.198C202.108 9.666 202.882 10.26 203.542 10.98L203.308 9ZM198.844 22.698C199.696 22.698 200.446 22.476 201.094 22.032C201.742 21.576 202.234 20.976 202.57 20.232C202.906 19.488 203.02 18.666 202.912 17.766C202.816 16.938 202.546 16.188 202.102 15.516C201.658 14.832 201.094 14.292 200.41 13.896C199.738 13.5 199.012 13.302 198.232 13.302C197.38 13.302 196.624 13.524 195.964 13.968C195.304 14.412 194.8 15.006 194.452 15.75C194.104 16.494 193.972 17.322 194.056 18.234C194.164 19.05 194.446 19.8 194.902 20.484C195.37 21.156 195.946 21.696 196.63 22.104C197.326 22.5 198.064 22.698 198.844 22.698ZM222.401 13.968H219.161V27H214.193V13.968H211.709V9H214.193V3.348H219.161V9H222.401V13.968Z" fill="black"/>
</svg>
